<mxfile host="app.diagrams.net" agent="Mozilla/5.0 (Windows NT 10.0; Win64; x64) AppleWebKit/537.36 (KHTML, like Gecko) Chrome/139.0.0.0 Safari/537.36" version="28.1.1">
  <diagram name="Page-1" id="II4_IXH8eUJkxMQNZ-H2">
    <mxGraphModel grid="1" page="1" gridSize="10" guides="1" tooltips="1" connect="1" arrows="1" fold="1" pageScale="1" pageWidth="850" pageHeight="1100" math="0" shadow="0">
      <root>
        <mxCell id="0" />
        <mxCell id="1" parent="0" />
        <mxCell id="0v5BYgATbwjIjrOFxE2R-17" style="rounded=0;orthogonalLoop=1;jettySize=auto;html=1;elbow=vertical;endArrow=none;endFill=0;" edge="1" parent="1" source="0v5BYgATbwjIjrOFxE2R-5" target="0v5BYgATbwjIjrOFxE2R-8">
          <mxGeometry relative="1" as="geometry">
            <mxPoint x="260" y="309.96000000000004" as="sourcePoint" />
            <mxPoint x="240" y="159.96" as="targetPoint" />
          </mxGeometry>
        </mxCell>
        <mxCell id="0v5BYgATbwjIjrOFxE2R-5" value="User" style="whiteSpace=wrap;html=1;align=center;" vertex="1" parent="1">
          <mxGeometry x="160" y="294.96000000000004" width="100" height="40" as="geometry" />
        </mxCell>
        <mxCell id="0v5BYgATbwjIjrOFxE2R-8" value="user_id" style="ellipse;whiteSpace=wrap;html=1;align=center;fontStyle=4;" vertex="1" parent="1">
          <mxGeometry x="160" y="199.96" width="100" height="40" as="geometry" />
        </mxCell>
        <mxCell id="0v5BYgATbwjIjrOFxE2R-9" value="name" style="ellipse;whiteSpace=wrap;html=1;align=center;" vertex="1" parent="1">
          <mxGeometry x="265" y="229.96" width="100" height="40" as="geometry" />
        </mxCell>
        <mxCell id="0v5BYgATbwjIjrOFxE2R-10" value="first_name" style="ellipse;whiteSpace=wrap;html=1;align=center;" vertex="1" parent="1">
          <mxGeometry x="285" y="149.96" width="100" height="40" as="geometry" />
        </mxCell>
        <mxCell id="0v5BYgATbwjIjrOFxE2R-12" value="last_name" style="ellipse;whiteSpace=wrap;html=1;align=center;" vertex="1" parent="1">
          <mxGeometry x="385" y="199.96" width="100" height="40" as="geometry" />
        </mxCell>
        <mxCell id="0v5BYgATbwjIjrOFxE2R-14" value="Phone" style="ellipse;whiteSpace=wrap;html=1;align=center;" vertex="1" parent="1">
          <mxGeometry x="80" y="375" width="100" height="40" as="geometry" />
        </mxCell>
        <mxCell id="0v5BYgATbwjIjrOFxE2R-15" value="password" style="ellipse;whiteSpace=wrap;html=1;align=center;fontStyle=4;" vertex="1" parent="1">
          <mxGeometry x="20" y="199.96" width="100" height="40" as="geometry" />
        </mxCell>
        <mxCell id="0v5BYgATbwjIjrOFxE2R-16" value="email" style="ellipse;whiteSpace=wrap;html=1;align=center;fontStyle=4;" vertex="1" parent="1">
          <mxGeometry x="20" y="297.5" width="100" height="50" as="geometry" />
        </mxCell>
        <mxCell id="0v5BYgATbwjIjrOFxE2R-21" style="rounded=0;orthogonalLoop=1;jettySize=auto;html=1;elbow=vertical;endArrow=none;endFill=0;" edge="1" parent="1" source="0v5BYgATbwjIjrOFxE2R-14" target="0v5BYgATbwjIjrOFxE2R-5">
          <mxGeometry relative="1" as="geometry">
            <mxPoint x="392" y="640" as="sourcePoint" />
            <mxPoint x="340" y="520" as="targetPoint" />
          </mxGeometry>
        </mxCell>
        <mxCell id="0v5BYgATbwjIjrOFxE2R-22" style="rounded=0;orthogonalLoop=1;jettySize=auto;html=1;elbow=vertical;endArrow=none;endFill=0;" edge="1" parent="1" source="0v5BYgATbwjIjrOFxE2R-5" target="0v5BYgATbwjIjrOFxE2R-9">
          <mxGeometry relative="1" as="geometry">
            <mxPoint x="270" y="319.96000000000004" as="sourcePoint" />
            <mxPoint x="218" y="199.96" as="targetPoint" />
          </mxGeometry>
        </mxCell>
        <mxCell id="0v5BYgATbwjIjrOFxE2R-24" style="rounded=0;orthogonalLoop=1;jettySize=auto;html=1;elbow=vertical;endArrow=none;endFill=0;" edge="1" parent="1" source="0v5BYgATbwjIjrOFxE2R-9" target="0v5BYgATbwjIjrOFxE2R-10">
          <mxGeometry relative="1" as="geometry">
            <mxPoint x="224" y="289.96000000000004" as="sourcePoint" />
            <mxPoint x="221" y="249.96" as="targetPoint" />
          </mxGeometry>
        </mxCell>
        <mxCell id="0v5BYgATbwjIjrOFxE2R-25" style="rounded=0;orthogonalLoop=1;jettySize=auto;html=1;elbow=vertical;endArrow=none;endFill=0;" edge="1" parent="1" source="0v5BYgATbwjIjrOFxE2R-9" target="0v5BYgATbwjIjrOFxE2R-12">
          <mxGeometry relative="1" as="geometry">
            <mxPoint x="370" y="249.96" as="sourcePoint" />
            <mxPoint x="358" y="179.96" as="targetPoint" />
          </mxGeometry>
        </mxCell>
        <mxCell id="0v5BYgATbwjIjrOFxE2R-26" style="rounded=0;orthogonalLoop=1;jettySize=auto;html=1;elbow=vertical;endArrow=none;endFill=0;" edge="1" parent="1" source="0v5BYgATbwjIjrOFxE2R-5" target="0v5BYgATbwjIjrOFxE2R-15">
          <mxGeometry relative="1" as="geometry">
            <mxPoint x="224" y="289.96000000000004" as="sourcePoint" />
            <mxPoint x="221" y="249.96" as="targetPoint" />
          </mxGeometry>
        </mxCell>
        <mxCell id="0v5BYgATbwjIjrOFxE2R-27" style="rounded=0;orthogonalLoop=1;jettySize=auto;html=1;elbow=vertical;endArrow=none;endFill=0;" edge="1" parent="1" source="0v5BYgATbwjIjrOFxE2R-5" target="0v5BYgATbwjIjrOFxE2R-16">
          <mxGeometry relative="1" as="geometry">
            <mxPoint x="193" y="289.96000000000004" as="sourcePoint" />
            <mxPoint x="100" y="314.96000000000004" as="targetPoint" />
          </mxGeometry>
        </mxCell>
        <mxCell id="0v5BYgATbwjIjrOFxE2R-28" value="" style="shape=link;html=1;rounded=0;" edge="1" parent="1" source="0v5BYgATbwjIjrOFxE2R-5" target="0v5BYgATbwjIjrOFxE2R-30">
          <mxGeometry width="100" relative="1" as="geometry">
            <mxPoint x="370" y="630" as="sourcePoint" />
            <mxPoint x="245" y="570" as="targetPoint" />
          </mxGeometry>
        </mxCell>
        <mxCell id="0v5BYgATbwjIjrOFxE2R-30" value="d" style="ellipse;whiteSpace=wrap;html=1;aspect=fixed;" vertex="1" parent="1">
          <mxGeometry x="200" y="395" width="20" height="20" as="geometry" />
        </mxCell>
        <mxCell id="0v5BYgATbwjIjrOFxE2R-31" value="admin" style="whiteSpace=wrap;html=1;align=center;" vertex="1" parent="1">
          <mxGeometry x="230" y="530" width="100" height="40" as="geometry" />
        </mxCell>
        <mxCell id="0v5BYgATbwjIjrOFxE2R-32" value="customer" style="whiteSpace=wrap;html=1;align=center;" vertex="1" parent="1">
          <mxGeometry x="100" y="530" width="100" height="40" as="geometry" />
        </mxCell>
        <mxCell id="0v5BYgATbwjIjrOFxE2R-37" style="rounded=0;orthogonalLoop=1;jettySize=auto;html=1;elbow=vertical;endArrow=none;endFill=0;entryX=0;entryY=1;entryDx=0;entryDy=0;" edge="1" parent="1" source="0v5BYgATbwjIjrOFxE2R-32" target="0v5BYgATbwjIjrOFxE2R-30">
          <mxGeometry relative="1" as="geometry">
            <mxPoint x="260.5" y="445" as="sourcePoint" />
            <mxPoint x="202.5" y="445" as="targetPoint" />
          </mxGeometry>
        </mxCell>
        <mxCell id="0v5BYgATbwjIjrOFxE2R-40" style="rounded=0;orthogonalLoop=1;jettySize=auto;html=1;elbow=vertical;endArrow=none;endFill=0;exitX=1;exitY=1;exitDx=0;exitDy=0;" edge="1" parent="1" source="0v5BYgATbwjIjrOFxE2R-30" target="0v5BYgATbwjIjrOFxE2R-31">
          <mxGeometry relative="1" as="geometry">
            <mxPoint x="360.5" y="304" as="sourcePoint" />
            <mxPoint x="395.5" y="296" as="targetPoint" />
          </mxGeometry>
        </mxCell>
        <mxCell id="0v5BYgATbwjIjrOFxE2R-50" style="rounded=0;orthogonalLoop=1;jettySize=auto;html=1;elbow=vertical;endArrow=none;endFill=0;" edge="1" parent="1" source="0v5BYgATbwjIjrOFxE2R-98" target="0v5BYgATbwjIjrOFxE2R-31">
          <mxGeometry relative="1" as="geometry">
            <mxPoint x="272.5292585798725" y="669.9954919944555" as="sourcePoint" />
            <mxPoint x="196.7747190230125" y="805.22" as="targetPoint" />
          </mxGeometry>
        </mxCell>
        <mxCell id="0v5BYgATbwjIjrOFxE2R-88" value="Hall" style="whiteSpace=wrap;html=1;align=center;" vertex="1" parent="1">
          <mxGeometry x="720" y="315" width="100" height="40" as="geometry" />
        </mxCell>
        <mxCell id="0v5BYgATbwjIjrOFxE2R-90" value="Hall_name" style="ellipse;whiteSpace=wrap;html=1;align=center;fontStyle=4;" vertex="1" parent="1">
          <mxGeometry x="690" y="239.95999999999998" width="100" height="40" as="geometry" />
        </mxCell>
        <mxCell id="0v5BYgATbwjIjrOFxE2R-94" style="rounded=0;orthogonalLoop=1;jettySize=auto;html=1;elbow=vertical;endArrow=none;endFill=0;" edge="1" parent="1" source="0v5BYgATbwjIjrOFxE2R-90" target="0v5BYgATbwjIjrOFxE2R-88">
          <mxGeometry relative="1" as="geometry">
            <mxPoint x="628.5" y="312" as="sourcePoint" />
            <mxPoint x="692.5" y="355" as="targetPoint" />
          </mxGeometry>
        </mxCell>
        <mxCell id="0v5BYgATbwjIjrOFxE2R-95" style="rounded=0;orthogonalLoop=1;jettySize=auto;html=1;elbow=vertical;endArrow=none;endFill=0;" edge="1" parent="1" source="AqsdqbYmz81iWgaVVn4U-1" target="0v5BYgATbwjIjrOFxE2R-88">
          <mxGeometry relative="1" as="geometry">
            <mxPoint x="683.5787768562277" y="314.8052247926512" as="sourcePoint" />
            <mxPoint x="692.5" y="355" as="targetPoint" />
          </mxGeometry>
        </mxCell>
        <mxCell id="0v5BYgATbwjIjrOFxE2R-98" value="salary" style="ellipse;whiteSpace=wrap;html=1;align=center;" vertex="1" parent="1">
          <mxGeometry x="252.5" y="435" width="100" height="40" as="geometry" />
        </mxCell>
        <mxCell id="0v5BYgATbwjIjrOFxE2R-101" value="address" style="ellipse;whiteSpace=wrap;html=1;align=center;" vertex="1" parent="1">
          <mxGeometry x="352.5" y="640" width="100" height="40" as="geometry" />
        </mxCell>
        <mxCell id="0v5BYgATbwjIjrOFxE2R-102" style="rounded=0;orthogonalLoop=1;jettySize=auto;html=1;elbow=vertical;endArrow=none;endFill=0;" edge="1" parent="1" source="0v5BYgATbwjIjrOFxE2R-101" target="0v5BYgATbwjIjrOFxE2R-31">
          <mxGeometry relative="1" as="geometry">
            <mxPoint x="329" y="706.22" as="sourcePoint" />
            <mxPoint x="315" y="711.22" as="targetPoint" />
          </mxGeometry>
        </mxCell>
        <mxCell id="0v5BYgATbwjIjrOFxE2R-103" value="joining_date" style="ellipse;whiteSpace=wrap;html=1;align=center;" vertex="1" parent="1">
          <mxGeometry x="240" y="640" width="100" height="40" as="geometry" />
        </mxCell>
        <mxCell id="0v5BYgATbwjIjrOFxE2R-104" style="rounded=0;orthogonalLoop=1;jettySize=auto;html=1;elbow=vertical;endArrow=none;endFill=0;" edge="1" parent="1" source="0v5BYgATbwjIjrOFxE2R-103" target="0v5BYgATbwjIjrOFxE2R-31">
          <mxGeometry relative="1" as="geometry">
            <mxPoint x="347" y="745.22" as="sourcePoint" />
            <mxPoint x="315" y="737.22" as="targetPoint" />
          </mxGeometry>
        </mxCell>
        <mxCell id="QvK3bpYZLEqpwQSzRRga-1" value="movie" style="whiteSpace=wrap;html=1;align=center;" vertex="1" parent="1">
          <mxGeometry x="1205" y="325" width="100" height="40" as="geometry" />
        </mxCell>
        <mxCell id="QvK3bpYZLEqpwQSzRRga-3" value="movie_name" style="ellipse;whiteSpace=wrap;html=1;align=center;fontStyle=4;" vertex="1" parent="1">
          <mxGeometry x="1130" y="245" width="100" height="40" as="geometry" />
        </mxCell>
        <mxCell id="QvK3bpYZLEqpwQSzRRga-4" value="genre" style="ellipse;whiteSpace=wrap;html=1;align=center;" vertex="1" parent="1">
          <mxGeometry x="1390" y="355" width="100" height="40" as="geometry" />
        </mxCell>
        <mxCell id="QvK3bpYZLEqpwQSzRRga-5" value="release_date" style="ellipse;whiteSpace=wrap;html=1;align=center;" vertex="1" parent="1">
          <mxGeometry x="1250" y="215" width="100" height="40" as="geometry" />
        </mxCell>
        <mxCell id="QvK3bpYZLEqpwQSzRRga-6" value="details" style="ellipse;whiteSpace=wrap;html=1;align=center;" vertex="1" parent="1">
          <mxGeometry x="1205" y="390" width="100" height="40" as="geometry" />
        </mxCell>
        <mxCell id="QvK3bpYZLEqpwQSzRRga-7" value="duration" style="ellipse;whiteSpace=wrap;html=1;align=center;" vertex="1" parent="1">
          <mxGeometry x="1380" y="235" width="100" height="40" as="geometry" />
        </mxCell>
        <mxCell id="QvK3bpYZLEqpwQSzRRga-8" style="rounded=0;orthogonalLoop=1;jettySize=auto;html=1;elbow=vertical;endArrow=none;endFill=0;" edge="1" parent="1" source="QvK3bpYZLEqpwQSzRRga-5" target="QvK3bpYZLEqpwQSzRRga-1">
          <mxGeometry relative="1" as="geometry">
            <mxPoint x="1419" y="39" as="sourcePoint" />
            <mxPoint x="1463" y="15" as="targetPoint" />
          </mxGeometry>
        </mxCell>
        <mxCell id="QvK3bpYZLEqpwQSzRRga-9" style="rounded=0;orthogonalLoop=1;jettySize=auto;html=1;elbow=vertical;endArrow=none;endFill=0;" edge="1" parent="1" source="QvK3bpYZLEqpwQSzRRga-7" target="QvK3bpYZLEqpwQSzRRga-1">
          <mxGeometry relative="1" as="geometry">
            <mxPoint x="1310" y="265" as="sourcePoint" />
            <mxPoint x="1310" y="325" as="targetPoint" />
          </mxGeometry>
        </mxCell>
        <mxCell id="QvK3bpYZLEqpwQSzRRga-10" style="rounded=0;orthogonalLoop=1;jettySize=auto;html=1;elbow=vertical;endArrow=none;endFill=0;" edge="1" parent="1" source="QvK3bpYZLEqpwQSzRRga-3" target="QvK3bpYZLEqpwQSzRRga-1">
          <mxGeometry relative="1" as="geometry">
            <mxPoint x="1310" y="265" as="sourcePoint" />
            <mxPoint x="1300" y="325" as="targetPoint" />
          </mxGeometry>
        </mxCell>
        <mxCell id="QvK3bpYZLEqpwQSzRRga-11" style="rounded=0;orthogonalLoop=1;jettySize=auto;html=1;elbow=vertical;endArrow=none;endFill=0;" edge="1" parent="1" source="QvK3bpYZLEqpwQSzRRga-6" target="QvK3bpYZLEqpwQSzRRga-1">
          <mxGeometry relative="1" as="geometry">
            <mxPoint x="1310" y="265" as="sourcePoint" />
            <mxPoint x="1310" y="315" as="targetPoint" />
          </mxGeometry>
        </mxCell>
        <mxCell id="QvK3bpYZLEqpwQSzRRga-12" style="rounded=0;orthogonalLoop=1;jettySize=auto;html=1;elbow=vertical;endArrow=none;endFill=0;" edge="1" parent="1" source="QvK3bpYZLEqpwQSzRRga-4" target="QvK3bpYZLEqpwQSzRRga-1">
          <mxGeometry relative="1" as="geometry">
            <mxPoint x="1310" y="265" as="sourcePoint" />
            <mxPoint x="1330" y="325" as="targetPoint" />
          </mxGeometry>
        </mxCell>
        <mxCell id="QvK3bpYZLEqpwQSzRRga-13" value="show" style="whiteSpace=wrap;html=1;align=center;" vertex="1" parent="1">
          <mxGeometry x="800" y="655" width="100" height="40" as="geometry" />
        </mxCell>
        <mxCell id="QvK3bpYZLEqpwQSzRRga-14" value="show_id" style="ellipse;whiteSpace=wrap;html=1;align=center;fontStyle=4;" vertex="1" parent="1">
          <mxGeometry x="1000" y="530" width="100" height="40" as="geometry" />
        </mxCell>
        <mxCell id="QvK3bpYZLEqpwQSzRRga-16" value="date" style="ellipse;whiteSpace=wrap;html=1;align=center;" vertex="1" parent="1">
          <mxGeometry x="750" y="570" width="100" height="40" as="geometry" />
        </mxCell>
        <mxCell id="QvK3bpYZLEqpwQSzRRga-17" value="time" style="ellipse;whiteSpace=wrap;html=1;align=center;" vertex="1" parent="1">
          <mxGeometry x="920" y="635" width="100" height="40" as="geometry" />
        </mxCell>
        <mxCell id="QvK3bpYZLEqpwQSzRRga-18" value="end" style="ellipse;whiteSpace=wrap;html=1;align=center;" vertex="1" parent="1">
          <mxGeometry x="1030" y="635" width="100" height="40" as="geometry" />
        </mxCell>
        <mxCell id="QvK3bpYZLEqpwQSzRRga-19" value="start" style="ellipse;whiteSpace=wrap;html=1;align=center;" vertex="1" parent="1">
          <mxGeometry x="1000" y="585" width="100" height="40" as="geometry" />
        </mxCell>
        <mxCell id="QvK3bpYZLEqpwQSzRRga-21" value="duration" style="ellipse;whiteSpace=wrap;html=1;align=center;dashed=1;" vertex="1" parent="1">
          <mxGeometry x="690" y="685" width="100" height="40" as="geometry" />
        </mxCell>
        <mxCell id="QvK3bpYZLEqpwQSzRRga-22" value="d" style="ellipse;whiteSpace=wrap;html=1;aspect=fixed;" vertex="1" parent="1">
          <mxGeometry x="840" y="735" width="20" height="20" as="geometry" />
        </mxCell>
        <mxCell id="QvK3bpYZLEqpwQSzRRga-23" value="" style="shape=link;html=1;rounded=0;width=4;" edge="1" parent="1" source="QvK3bpYZLEqpwQSzRRga-13" target="QvK3bpYZLEqpwQSzRRga-22">
          <mxGeometry width="100" relative="1" as="geometry">
            <mxPoint x="305" y="315" as="sourcePoint" />
            <mxPoint x="305" y="365" as="targetPoint" />
          </mxGeometry>
        </mxCell>
        <mxCell id="QvK3bpYZLEqpwQSzRRga-24" value="gold" style="whiteSpace=wrap;html=1;align=center;" vertex="1" parent="1">
          <mxGeometry x="742.5" y="775" width="100" height="40" as="geometry" />
        </mxCell>
        <mxCell id="QvK3bpYZLEqpwQSzRRga-25" value="silver" style="whiteSpace=wrap;html=1;align=center;" vertex="1" parent="1">
          <mxGeometry x="860" y="775" width="100" height="40" as="geometry" />
        </mxCell>
        <mxCell id="QvK3bpYZLEqpwQSzRRga-26" style="rounded=0;orthogonalLoop=1;jettySize=auto;html=1;elbow=vertical;endArrow=none;endFill=0;" edge="1" parent="1" source="QvK3bpYZLEqpwQSzRRga-13" target="QvK3bpYZLEqpwQSzRRga-14">
          <mxGeometry relative="1" as="geometry">
            <mxPoint x="1400" y="355" as="sourcePoint" />
            <mxPoint x="1400" y="410" as="targetPoint" />
          </mxGeometry>
        </mxCell>
        <mxCell id="QvK3bpYZLEqpwQSzRRga-27" style="rounded=0;orthogonalLoop=1;jettySize=auto;html=1;elbow=vertical;endArrow=none;endFill=0;" edge="1" parent="1" source="QvK3bpYZLEqpwQSzRRga-13" target="QvK3bpYZLEqpwQSzRRga-21">
          <mxGeometry relative="1" as="geometry">
            <mxPoint x="840" y="675" as="sourcePoint" />
            <mxPoint x="793" y="633" as="targetPoint" />
          </mxGeometry>
        </mxCell>
        <mxCell id="QvK3bpYZLEqpwQSzRRga-28" style="rounded=0;orthogonalLoop=1;jettySize=auto;html=1;elbow=vertical;endArrow=none;endFill=0;" edge="1" parent="1" source="QvK3bpYZLEqpwQSzRRga-13" target="QvK3bpYZLEqpwQSzRRga-16">
          <mxGeometry relative="1" as="geometry">
            <mxPoint x="810" y="685" as="sourcePoint" />
            <mxPoint x="760" y="685" as="targetPoint" />
          </mxGeometry>
        </mxCell>
        <mxCell id="QvK3bpYZLEqpwQSzRRga-29" style="rounded=0;orthogonalLoop=1;jettySize=auto;html=1;elbow=vertical;endArrow=none;endFill=0;" edge="1" parent="1" source="QvK3bpYZLEqpwQSzRRga-13" target="QvK3bpYZLEqpwQSzRRga-17">
          <mxGeometry relative="1" as="geometry">
            <mxPoint x="850" y="675" as="sourcePoint" />
            <mxPoint x="760" y="685" as="targetPoint" />
          </mxGeometry>
        </mxCell>
        <mxCell id="QvK3bpYZLEqpwQSzRRga-30" style="rounded=0;orthogonalLoop=1;jettySize=auto;html=1;elbow=vertical;endArrow=none;endFill=0;" edge="1" parent="1" source="QvK3bpYZLEqpwQSzRRga-17" target="QvK3bpYZLEqpwQSzRRga-19">
          <mxGeometry relative="1" as="geometry">
            <mxPoint x="990" y="625" as="sourcePoint" />
            <mxPoint x="972" y="648" as="targetPoint" />
          </mxGeometry>
        </mxCell>
        <mxCell id="QvK3bpYZLEqpwQSzRRga-31" style="rounded=0;orthogonalLoop=1;jettySize=auto;html=1;elbow=vertical;endArrow=none;endFill=0;" edge="1" parent="1" source="QvK3bpYZLEqpwQSzRRga-17" target="QvK3bpYZLEqpwQSzRRga-18">
          <mxGeometry relative="1" as="geometry">
            <mxPoint x="1036" y="618" as="sourcePoint" />
            <mxPoint x="1074" y="592" as="targetPoint" />
          </mxGeometry>
        </mxCell>
        <mxCell id="QvK3bpYZLEqpwQSzRRga-32" style="rounded=0;orthogonalLoop=1;jettySize=auto;html=1;elbow=vertical;endArrow=none;endFill=0;entryX=1;entryY=1;entryDx=0;entryDy=0;" edge="1" parent="1" source="QvK3bpYZLEqpwQSzRRga-25" target="QvK3bpYZLEqpwQSzRRga-22">
          <mxGeometry relative="1" as="geometry">
            <mxPoint x="1047" y="648" as="sourcePoint" />
            <mxPoint x="1083" y="662" as="targetPoint" />
          </mxGeometry>
        </mxCell>
        <mxCell id="QvK3bpYZLEqpwQSzRRga-33" style="rounded=0;orthogonalLoop=1;jettySize=auto;html=1;elbow=vertical;endArrow=none;endFill=0;exitX=0;exitY=1;exitDx=0;exitDy=0;" edge="1" parent="1" source="QvK3bpYZLEqpwQSzRRga-22" target="QvK3bpYZLEqpwQSzRRga-24">
          <mxGeometry relative="1" as="geometry">
            <mxPoint x="895" y="785" as="sourcePoint" />
            <mxPoint x="867" y="762" as="targetPoint" />
          </mxGeometry>
        </mxCell>
        <mxCell id="QvK3bpYZLEqpwQSzRRga-34" value="Payment" style="whiteSpace=wrap;html=1;align=center;" vertex="1" parent="1">
          <mxGeometry x="562.5" y="1080" width="100" height="40" as="geometry" />
        </mxCell>
        <mxCell id="QvK3bpYZLEqpwQSzRRga-35" value="price" style="ellipse;whiteSpace=wrap;html=1;align=center;" vertex="1" parent="1">
          <mxGeometry x="642.5" y="740.22" width="100" height="40" as="geometry" />
        </mxCell>
        <mxCell id="QvK3bpYZLEqpwQSzRRga-36" value="price" style="ellipse;whiteSpace=wrap;html=1;align=center;" vertex="1" parent="1">
          <mxGeometry x="900" y="725" width="100" height="40" as="geometry" />
        </mxCell>
        <mxCell id="QvK3bpYZLEqpwQSzRRga-37" style="rounded=0;orthogonalLoop=1;jettySize=auto;html=1;elbow=vertical;endArrow=none;endFill=0;" edge="1" parent="1" source="QvK3bpYZLEqpwQSzRRga-24" target="QvK3bpYZLEqpwQSzRRga-35">
          <mxGeometry relative="1" as="geometry">
            <mxPoint x="853" y="762" as="sourcePoint" />
            <mxPoint x="825" y="785" as="targetPoint" />
          </mxGeometry>
        </mxCell>
        <mxCell id="QvK3bpYZLEqpwQSzRRga-38" style="rounded=0;orthogonalLoop=1;jettySize=auto;html=1;elbow=vertical;endArrow=none;endFill=0;" edge="1" parent="1" source="QvK3bpYZLEqpwQSzRRga-25" target="QvK3bpYZLEqpwQSzRRga-36">
          <mxGeometry relative="1" as="geometry">
            <mxPoint x="910" y="668" as="sourcePoint" />
            <mxPoint x="972" y="648" as="targetPoint" />
          </mxGeometry>
        </mxCell>
        <mxCell id="QvK3bpYZLEqpwQSzRRga-40" value="transaction_id" style="ellipse;whiteSpace=wrap;html=1;align=center;fontStyle=4;" vertex="1" parent="1">
          <mxGeometry x="562.5" y="1020" width="100" height="40" as="geometry" />
        </mxCell>
        <mxCell id="QvK3bpYZLEqpwQSzRRga-41" style="rounded=0;orthogonalLoop=1;jettySize=auto;html=1;elbow=vertical;endArrow=none;endFill=0;" edge="1" parent="1" source="QvK3bpYZLEqpwQSzRRga-40" target="QvK3bpYZLEqpwQSzRRga-34">
          <mxGeometry relative="1" as="geometry">
            <mxPoint x="189.5" y="1210" as="sourcePoint" />
            <mxPoint x="218.5" y="1188" as="targetPoint" />
          </mxGeometry>
        </mxCell>
        <mxCell id="QvK3bpYZLEqpwQSzRRga-42" value="card" style="whiteSpace=wrap;html=1;align=center;" vertex="1" parent="1">
          <mxGeometry x="472.5" y="1170" width="100" height="40" as="geometry" />
        </mxCell>
        <mxCell id="QvK3bpYZLEqpwQSzRRga-43" value="d" style="ellipse;whiteSpace=wrap;html=1;aspect=fixed;" vertex="1" parent="1">
          <mxGeometry x="602.5" y="1140" width="20" height="20" as="geometry" />
        </mxCell>
        <mxCell id="QvK3bpYZLEqpwQSzRRga-44" value="" style="shape=link;html=1;rounded=0;width=4;" edge="1" parent="1" target="QvK3bpYZLEqpwQSzRRga-34">
          <mxGeometry width="100" relative="1" as="geometry">
            <mxPoint x="612.5" y="1140" as="sourcePoint" />
            <mxPoint x="102.5" y="1170" as="targetPoint" />
          </mxGeometry>
        </mxCell>
        <mxCell id="QvK3bpYZLEqpwQSzRRga-46" value="mobile_wallet" style="whiteSpace=wrap;html=1;align=center;" vertex="1" parent="1">
          <mxGeometry x="652.5" y="1170" width="100" height="40" as="geometry" />
        </mxCell>
        <mxCell id="QvK3bpYZLEqpwQSzRRga-47" style="rounded=0;orthogonalLoop=1;jettySize=auto;html=1;elbow=vertical;endArrow=none;endFill=0;entryX=0;entryY=1;entryDx=0;entryDy=0;" edge="1" parent="1" source="QvK3bpYZLEqpwQSzRRga-42" target="QvK3bpYZLEqpwQSzRRga-43">
          <mxGeometry relative="1" as="geometry">
            <mxPoint x="561.5" y="1049" as="sourcePoint" />
            <mxPoint x="602.5" y="1090" as="targetPoint" />
          </mxGeometry>
        </mxCell>
        <mxCell id="QvK3bpYZLEqpwQSzRRga-48" style="rounded=0;orthogonalLoop=1;jettySize=auto;html=1;elbow=vertical;endArrow=none;endFill=0;entryX=1;entryY=1;entryDx=0;entryDy=0;" edge="1" parent="1" source="QvK3bpYZLEqpwQSzRRga-46" target="QvK3bpYZLEqpwQSzRRga-43">
          <mxGeometry relative="1" as="geometry">
            <mxPoint x="561.5" y="1049" as="sourcePoint" />
            <mxPoint x="602.5" y="1090" as="targetPoint" />
          </mxGeometry>
        </mxCell>
        <mxCell id="QvK3bpYZLEqpwQSzRRga-55" value="card_no" style="ellipse;whiteSpace=wrap;html=1;align=center;fontStyle=4;" vertex="1" parent="1">
          <mxGeometry x="402.5" y="1110" width="100" height="40" as="geometry" />
        </mxCell>
        <mxCell id="QvK3bpYZLEqpwQSzRRga-56" value="&lt;u&gt;Phone_no&lt;/u&gt;" style="ellipse;whiteSpace=wrap;html=1;align=center;" vertex="1" parent="1">
          <mxGeometry x="742.5" y="1110" width="100" height="40" as="geometry" />
        </mxCell>
        <mxCell id="QvK3bpYZLEqpwQSzRRga-57" value="company_name" style="ellipse;whiteSpace=wrap;html=1;align=center;" vertex="1" parent="1">
          <mxGeometry x="780" y="1170" width="100" height="40" as="geometry" />
        </mxCell>
        <mxCell id="QvK3bpYZLEqpwQSzRRga-58" value="bank_name" style="ellipse;whiteSpace=wrap;html=1;align=center;" vertex="1" parent="1">
          <mxGeometry x="352.5" y="1160" width="100" height="40" as="geometry" />
        </mxCell>
        <mxCell id="QvK3bpYZLEqpwQSzRRga-59" value="card_type" style="ellipse;whiteSpace=wrap;html=1;align=center;" vertex="1" parent="1">
          <mxGeometry x="342.5" y="1210" width="100" height="40" as="geometry" />
        </mxCell>
        <mxCell id="QvK3bpYZLEqpwQSzRRga-60" style="rounded=0;orthogonalLoop=1;jettySize=auto;html=1;elbow=vertical;endArrow=none;endFill=0;" edge="1" parent="1" source="QvK3bpYZLEqpwQSzRRga-42" target="QvK3bpYZLEqpwQSzRRga-55">
          <mxGeometry relative="1" as="geometry">
            <mxPoint x="573.5" y="1280" as="sourcePoint" />
            <mxPoint x="539.5" y="1257" as="targetPoint" />
          </mxGeometry>
        </mxCell>
        <mxCell id="QvK3bpYZLEqpwQSzRRga-61" style="rounded=0;orthogonalLoop=1;jettySize=auto;html=1;elbow=vertical;endArrow=none;endFill=0;" edge="1" parent="1" source="QvK3bpYZLEqpwQSzRRga-42" target="QvK3bpYZLEqpwQSzRRga-58">
          <mxGeometry relative="1" as="geometry">
            <mxPoint x="509.5" y="1180" as="sourcePoint" />
            <mxPoint x="483.5" y="1158" as="targetPoint" />
          </mxGeometry>
        </mxCell>
        <mxCell id="QvK3bpYZLEqpwQSzRRga-62" style="rounded=0;orthogonalLoop=1;jettySize=auto;html=1;elbow=vertical;endArrow=none;endFill=0;" edge="1" parent="1" source="QvK3bpYZLEqpwQSzRRga-42" target="QvK3bpYZLEqpwQSzRRga-59">
          <mxGeometry relative="1" as="geometry">
            <mxPoint x="482.5" y="1196" as="sourcePoint" />
            <mxPoint x="461.5" y="1194" as="targetPoint" />
          </mxGeometry>
        </mxCell>
        <mxCell id="QvK3bpYZLEqpwQSzRRga-64" style="rounded=0;orthogonalLoop=1;jettySize=auto;html=1;elbow=vertical;endArrow=none;endFill=0;" edge="1" parent="1" source="QvK3bpYZLEqpwQSzRRga-46" target="QvK3bpYZLEqpwQSzRRga-56">
          <mxGeometry relative="1" as="geometry">
            <mxPoint x="662.5" y="1180" as="sourcePoint" />
            <mxPoint x="629.5" y="1167" as="targetPoint" />
          </mxGeometry>
        </mxCell>
        <mxCell id="QvK3bpYZLEqpwQSzRRga-65" style="rounded=0;orthogonalLoop=1;jettySize=auto;html=1;elbow=vertical;endArrow=none;endFill=0;" edge="1" parent="1" source="QvK3bpYZLEqpwQSzRRga-46" target="QvK3bpYZLEqpwQSzRRga-57">
          <mxGeometry relative="1" as="geometry">
            <mxPoint x="749.5" y="1180" as="sourcePoint" />
            <mxPoint x="794.5" y="1156" as="targetPoint" />
          </mxGeometry>
        </mxCell>
        <mxCell id="QvK3bpYZLEqpwQSzRRga-67" value="booking" style="whiteSpace=wrap;html=1;align=center;" vertex="1" parent="1">
          <mxGeometry x="1242.5" y="860.0699999999999" width="100" height="40" as="geometry" />
        </mxCell>
        <mxCell id="QvK3bpYZLEqpwQSzRRga-68" value="booking_id" style="ellipse;whiteSpace=wrap;html=1;align=center;fontStyle=4;" vertex="1" parent="1">
          <mxGeometry x="1342.5" y="814.9999999999999" width="100" height="40" as="geometry" />
        </mxCell>
        <mxCell id="QvK3bpYZLEqpwQSzRRga-70" value="Ticket_price" style="ellipse;whiteSpace=wrap;html=1;align=center;" vertex="1" parent="1">
          <mxGeometry x="1357.5" y="900.0699999999999" width="100" height="40" as="geometry" />
        </mxCell>
        <mxCell id="QvK3bpYZLEqpwQSzRRga-72" value="description" style="ellipse;whiteSpace=wrap;html=1;align=center;dashed=1;" vertex="1" parent="1">
          <mxGeometry x="1160" y="940.0699999999999" width="100" height="40" as="geometry" />
        </mxCell>
        <mxCell id="QvK3bpYZLEqpwQSzRRga-73" style="rounded=0;orthogonalLoop=1;jettySize=auto;html=1;elbow=vertical;endArrow=none;endFill=0;" edge="1" parent="1" source="QvK3bpYZLEqpwQSzRRga-67" target="QvK3bpYZLEqpwQSzRRga-72">
          <mxGeometry relative="1" as="geometry">
            <mxPoint x="1849.5" y="641.0699999999999" as="sourcePoint" />
            <mxPoint x="1815.5" y="665.0699999999999" as="targetPoint" />
          </mxGeometry>
        </mxCell>
        <mxCell id="QvK3bpYZLEqpwQSzRRga-74" style="rounded=0;orthogonalLoop=1;jettySize=auto;html=1;elbow=vertical;endArrow=none;endFill=0;" edge="1" parent="1" source="QvK3bpYZLEqpwQSzRRga-67" target="QvK3bpYZLEqpwQSzRRga-68">
          <mxGeometry relative="1" as="geometry">
            <mxPoint x="1262.5" y="880.0699999999999" as="sourcePoint" />
            <mxPoint x="1213.5" y="856.0699999999999" as="targetPoint" />
          </mxGeometry>
        </mxCell>
        <mxCell id="QvK3bpYZLEqpwQSzRRga-75" style="rounded=0;orthogonalLoop=1;jettySize=auto;html=1;elbow=vertical;endArrow=none;endFill=0;" edge="1" parent="1" source="QvK3bpYZLEqpwQSzRRga-67" target="QvK3bpYZLEqpwQSzRRga-70">
          <mxGeometry relative="1" as="geometry">
            <mxPoint x="1262.5" y="880.0699999999999" as="sourcePoint" />
            <mxPoint x="1213.5" y="856.0699999999999" as="targetPoint" />
          </mxGeometry>
        </mxCell>
        <mxCell id="QvK3bpYZLEqpwQSzRRga-76" value="booking_seat_no" style="ellipse;shape=doubleEllipse;margin=3;whiteSpace=wrap;html=1;align=center;" vertex="1" parent="1">
          <mxGeometry x="1277.5" y="940.07" width="112.5" height="49.93" as="geometry" />
        </mxCell>
        <mxCell id="QvK3bpYZLEqpwQSzRRga-77" style="rounded=0;orthogonalLoop=1;jettySize=auto;html=1;elbow=vertical;endArrow=none;endFill=0;" edge="1" parent="1" source="QvK3bpYZLEqpwQSzRRga-67" target="QvK3bpYZLEqpwQSzRRga-76">
          <mxGeometry relative="1" as="geometry">
            <mxPoint x="1342.5" y="880.0699999999999" as="sourcePoint" />
            <mxPoint x="1391.5" y="856.0699999999999" as="targetPoint" />
          </mxGeometry>
        </mxCell>
        <mxCell id="mSWgtCPHPHlNYcxo36IA-21" value="" style="html=1;rounded=0;entryX=0;entryY=0.5;entryDx=0;entryDy=0;endArrow=none;endFill=0;" edge="1" parent="1" source="0v5BYgATbwjIjrOFxE2R-31" target="d7ewJkxzptBL8_109A1J-2">
          <mxGeometry width="100" relative="1" as="geometry">
            <mxPoint x="670" y="680" as="sourcePoint" />
            <mxPoint x="533.3684757729336" y="537.8699999999999" as="targetPoint" />
          </mxGeometry>
        </mxCell>
        <mxCell id="mSWgtCPHPHlNYcxo36IA-22" value="1" style="edgeLabel;html=1;align=center;verticalAlign=middle;resizable=0;points=[];fontSize=14;" connectable="0" vertex="1" parent="mSWgtCPHPHlNYcxo36IA-21">
          <mxGeometry x="0.0067" y="3" relative="1" as="geometry">
            <mxPoint x="2" y="-12" as="offset" />
          </mxGeometry>
        </mxCell>
        <mxCell id="mSWgtCPHPHlNYcxo36IA-23" value="" style="shape=link;html=1;rounded=0;exitX=1;exitY=0.5;exitDx=0;exitDy=0;" edge="1" parent="1" source="d7ewJkxzptBL8_109A1J-2" target="QvK3bpYZLEqpwQSzRRga-13">
          <mxGeometry width="100" relative="1" as="geometry">
            <mxPoint x="637.2915242270665" y="597.8699999999999" as="sourcePoint" />
            <mxPoint x="588" y="505" as="targetPoint" />
          </mxGeometry>
        </mxCell>
        <mxCell id="mSWgtCPHPHlNYcxo36IA-24" value="N" style="edgeLabel;html=1;align=center;verticalAlign=middle;resizable=0;points=[];fontSize=14;" connectable="0" vertex="1" parent="mSWgtCPHPHlNYcxo36IA-23">
          <mxGeometry x="0.0067" y="3" relative="1" as="geometry">
            <mxPoint x="5" y="-8" as="offset" />
          </mxGeometry>
        </mxCell>
        <mxCell id="mSWgtCPHPHlNYcxo36IA-28" value="screens" style="shape=rhombus;perimeter=rhombusPerimeter;whiteSpace=wrap;html=1;align=center;rotation=-45;" vertex="1" parent="1">
          <mxGeometry x="1000" y="395" width="120" height="80" as="geometry" />
        </mxCell>
        <mxCell id="mSWgtCPHPHlNYcxo36IA-29" value="" style="shape=link;html=1;rounded=0;exitX=1;exitY=0.5;exitDx=0;exitDy=0;" edge="1" parent="1" source="mSWgtCPHPHlNYcxo36IA-28" target="QvK3bpYZLEqpwQSzRRga-1">
          <mxGeometry width="100" relative="1" as="geometry">
            <mxPoint x="1169.4964068711934" y="417.14359312880697" as="sourcePoint" />
            <mxPoint x="795" y="607" as="targetPoint" />
          </mxGeometry>
        </mxCell>
        <mxCell id="mSWgtCPHPHlNYcxo36IA-30" value="1" style="edgeLabel;html=1;align=center;verticalAlign=middle;resizable=0;points=[];fontSize=14;" connectable="0" vertex="1" parent="mSWgtCPHPHlNYcxo36IA-29">
          <mxGeometry x="0.0067" y="3" relative="1" as="geometry">
            <mxPoint x="5" y="-14" as="offset" />
          </mxGeometry>
        </mxCell>
        <mxCell id="mSWgtCPHPHlNYcxo36IA-31" value="" style="shape=link;html=1;rounded=0;entryX=0;entryY=0.5;entryDx=0;entryDy=0;" edge="1" parent="1" source="QvK3bpYZLEqpwQSzRRga-13" target="mSWgtCPHPHlNYcxo36IA-28">
          <mxGeometry width="100" relative="1" as="geometry">
            <mxPoint x="1158" y="464" as="sourcePoint" />
            <mxPoint x="1275" y="419" as="targetPoint" />
          </mxGeometry>
        </mxCell>
        <mxCell id="mSWgtCPHPHlNYcxo36IA-32" value="N" style="edgeLabel;html=1;align=center;verticalAlign=middle;resizable=0;points=[];fontSize=14;rotation=-20;" connectable="0" vertex="1" parent="mSWgtCPHPHlNYcxo36IA-31">
          <mxGeometry x="0.0067" y="3" relative="1" as="geometry">
            <mxPoint x="3" y="-42" as="offset" />
          </mxGeometry>
        </mxCell>
        <mxCell id="mBSyl6_AOJQAUt9kksNe-3" value="hosts" style="shape=rhombus;perimeter=rhombusPerimeter;whiteSpace=wrap;html=1;align=center;rotation=75;" vertex="1" parent="1">
          <mxGeometry x="790" y="450" width="120" height="60" as="geometry" />
        </mxCell>
        <mxCell id="mBSyl6_AOJQAUt9kksNe-4" value="" style="html=1;rounded=0;entryX=0;entryY=0.5;entryDx=0;entryDy=0;endArrow=none;endFill=0;" edge="1" parent="1" source="0v5BYgATbwjIjrOFxE2R-88" target="mBSyl6_AOJQAUt9kksNe-3">
          <mxGeometry width="100" relative="1" as="geometry">
            <mxPoint x="347.5" y="682" as="sourcePoint" />
            <mxPoint x="807.1429042955579" y="460.6215327778009" as="targetPoint" />
          </mxGeometry>
        </mxCell>
        <mxCell id="mBSyl6_AOJQAUt9kksNe-5" value="1" style="edgeLabel;html=1;align=center;verticalAlign=middle;resizable=0;points=[];fontSize=14;" connectable="0" vertex="1" parent="mBSyl6_AOJQAUt9kksNe-4">
          <mxGeometry x="0.0067" y="3" relative="1" as="geometry">
            <mxPoint x="2" y="-12" as="offset" />
          </mxGeometry>
        </mxCell>
        <mxCell id="mBSyl6_AOJQAUt9kksNe-6" value="" style="shape=link;html=1;rounded=0;exitX=1;exitY=0.5;exitDx=0;exitDy=0;" edge="1" parent="1" source="mBSyl6_AOJQAUt9kksNe-3" target="QvK3bpYZLEqpwQSzRRga-13">
          <mxGeometry width="100" relative="1" as="geometry">
            <mxPoint x="647" y="608" as="sourcePoint" />
            <mxPoint x="810" y="667" as="targetPoint" />
          </mxGeometry>
        </mxCell>
        <mxCell id="mBSyl6_AOJQAUt9kksNe-7" value="N" style="edgeLabel;html=1;align=center;verticalAlign=middle;resizable=0;points=[];fontSize=14;rotation=75;" connectable="0" vertex="1" parent="mBSyl6_AOJQAUt9kksNe-6">
          <mxGeometry x="0.0067" y="3" relative="1" as="geometry">
            <mxPoint x="16" y="-9" as="offset" />
          </mxGeometry>
        </mxCell>
        <mxCell id="mBSyl6_AOJQAUt9kksNe-9" value="" style="html=1;rounded=0;entryX=0;entryY=0.5;entryDx=0;entryDy=0;endArrow=none;endFill=0;" edge="1" parent="1" source="0v5BYgATbwjIjrOFxE2R-32" target="d7ewJkxzptBL8_109A1J-5">
          <mxGeometry width="100" relative="1" as="geometry">
            <mxPoint x="305" y="517" as="sourcePoint" />
            <mxPoint x="500.8508773426604" y="835.6554138189374" as="targetPoint" />
          </mxGeometry>
        </mxCell>
        <mxCell id="mBSyl6_AOJQAUt9kksNe-10" value="1" style="edgeLabel;html=1;align=center;verticalAlign=middle;resizable=0;points=[];fontSize=14;" connectable="0" vertex="1" parent="mBSyl6_AOJQAUt9kksNe-9">
          <mxGeometry x="0.0067" y="3" relative="1" as="geometry">
            <mxPoint x="2" y="-12" as="offset" />
          </mxGeometry>
        </mxCell>
        <mxCell id="mBSyl6_AOJQAUt9kksNe-11" value="" style="shape=link;html=1;rounded=0;exitX=1;exitY=0.5;exitDx=0;exitDy=0;" edge="1" parent="1" source="d7ewJkxzptBL8_109A1J-5" target="QvK3bpYZLEqpwQSzRRga-67">
          <mxGeometry width="100" relative="1" as="geometry">
            <mxPoint x="599.1491226573398" y="904.4845861810629" as="sourcePoint" />
            <mxPoint x="543" y="548" as="targetPoint" />
          </mxGeometry>
        </mxCell>
        <mxCell id="mBSyl6_AOJQAUt9kksNe-12" value="1" style="edgeLabel;html=1;align=center;verticalAlign=middle;resizable=0;points=[];fontSize=14;" connectable="0" vertex="1" parent="mBSyl6_AOJQAUt9kksNe-11">
          <mxGeometry x="0.0067" y="3" relative="1" as="geometry">
            <mxPoint x="2" y="-12" as="offset" />
          </mxGeometry>
        </mxCell>
        <mxCell id="mBSyl6_AOJQAUt9kksNe-13" value="receives" style="shape=rhombus;perimeter=rhombusPerimeter;whiteSpace=wrap;html=1;align=center;rotation=30;" vertex="1" parent="1">
          <mxGeometry x="1060" y="740.22" width="120" height="60" as="geometry" />
        </mxCell>
        <mxCell id="mBSyl6_AOJQAUt9kksNe-16" value="" style="shape=link;html=1;rounded=0;entryX=1;entryY=0.5;entryDx=0;entryDy=0;" edge="1" parent="1" source="QvK3bpYZLEqpwQSzRRga-67" target="mBSyl6_AOJQAUt9kksNe-13">
          <mxGeometry width="100" relative="1" as="geometry">
            <mxPoint x="647" y="608" as="sourcePoint" />
            <mxPoint x="1290" y="770" as="targetPoint" />
          </mxGeometry>
        </mxCell>
        <mxCell id="mBSyl6_AOJQAUt9kksNe-17" value="N" style="edgeLabel;html=1;align=center;verticalAlign=middle;resizable=0;points=[];fontSize=14;" connectable="0" vertex="1" parent="mBSyl6_AOJQAUt9kksNe-16">
          <mxGeometry x="0.0067" y="3" relative="1" as="geometry">
            <mxPoint x="21" y="-21" as="offset" />
          </mxGeometry>
        </mxCell>
        <mxCell id="mBSyl6_AOJQAUt9kksNe-18" value="settles" style="shape=rhombus;perimeter=rhombusPerimeter;whiteSpace=wrap;html=1;align=center;rotation=-25;" vertex="1" parent="1">
          <mxGeometry x="880" y="950" width="120" height="60" as="geometry" />
        </mxCell>
        <mxCell id="mBSyl6_AOJQAUt9kksNe-19" value="" style="html=1;rounded=0;exitX=1;exitY=0.5;exitDx=0;exitDy=0;endArrow=none;endFill=0;" edge="1" parent="1" source="mBSyl6_AOJQAUt9kksNe-18" target="QvK3bpYZLEqpwQSzRRga-67">
          <mxGeometry width="100" relative="1" as="geometry">
            <mxPoint x="540" y="832" as="sourcePoint" />
            <mxPoint x="697" y="920" as="targetPoint" />
          </mxGeometry>
        </mxCell>
        <mxCell id="mBSyl6_AOJQAUt9kksNe-20" value="1" style="edgeLabel;html=1;align=center;verticalAlign=middle;resizable=0;points=[];fontSize=14;" connectable="0" vertex="1" parent="mBSyl6_AOJQAUt9kksNe-19">
          <mxGeometry x="0.0067" y="3" relative="1" as="geometry">
            <mxPoint x="2" y="-12" as="offset" />
          </mxGeometry>
        </mxCell>
        <mxCell id="mBSyl6_AOJQAUt9kksNe-21" value="" style="shape=link;html=1;rounded=0;entryX=0;entryY=0.5;entryDx=0;entryDy=0;" edge="1" parent="1" source="QvK3bpYZLEqpwQSzRRga-34" target="mBSyl6_AOJQAUt9kksNe-18">
          <mxGeometry width="100" relative="1" as="geometry">
            <mxPoint x="833.75" y="861.71" as="sourcePoint" />
            <mxPoint x="760.5384757729337" y="1040" as="targetPoint" />
          </mxGeometry>
        </mxCell>
        <mxCell id="mBSyl6_AOJQAUt9kksNe-22" value="1" style="edgeLabel;html=1;align=center;verticalAlign=middle;resizable=0;points=[];fontSize=14;" connectable="0" vertex="1" parent="mBSyl6_AOJQAUt9kksNe-21">
          <mxGeometry x="0.0067" y="3" relative="1" as="geometry">
            <mxPoint x="2" y="-12" as="offset" />
          </mxGeometry>
        </mxCell>
        <mxCell id="mBSyl6_AOJQAUt9kksNe-23" value="payment_status" style="ellipse;whiteSpace=wrap;html=1;align=center;" vertex="1" parent="1">
          <mxGeometry x="790" y="930.0000000000001" width="100" height="40" as="geometry" />
        </mxCell>
        <mxCell id="mBSyl6_AOJQAUt9kksNe-24" style="rounded=0;orthogonalLoop=1;jettySize=auto;html=1;elbow=vertical;endArrow=none;endFill=0;" edge="1" parent="1" source="mBSyl6_AOJQAUt9kksNe-23" target="mBSyl6_AOJQAUt9kksNe-18">
          <mxGeometry relative="1" as="geometry">
            <mxPoint x="704.48" y="969.57" as="sourcePoint" />
            <mxPoint x="490.0000186597001" y="970.2858345868975" as="targetPoint" />
          </mxGeometry>
        </mxCell>
        <mxCell id="mBSyl6_AOJQAUt9kksNe-25" value="" style="html=1;rounded=0;endArrow=none;endFill=0;exitX=0;exitY=0.5;exitDx=0;exitDy=0;" edge="1" parent="1" source="mBSyl6_AOJQAUt9kksNe-13" target="QvK3bpYZLEqpwQSzRRga-13">
          <mxGeometry width="100" relative="1" as="geometry">
            <mxPoint x="1030" y="830" as="sourcePoint" />
            <mxPoint x="1143" y="960" as="targetPoint" />
          </mxGeometry>
        </mxCell>
        <mxCell id="mBSyl6_AOJQAUt9kksNe-26" value="1" style="edgeLabel;html=1;align=center;verticalAlign=middle;resizable=0;points=[];fontSize=14;" connectable="0" vertex="1" parent="mBSyl6_AOJQAUt9kksNe-25">
          <mxGeometry x="0.0067" y="3" relative="1" as="geometry">
            <mxPoint x="4" y="-17" as="offset" />
          </mxGeometry>
        </mxCell>
        <mxCell id="d7ewJkxzptBL8_109A1J-2" value="manages" style="shape=rhombus;perimeter=rhombusPerimeter;whiteSpace=wrap;html=1;align=center;rotation=15;" vertex="1" parent="1">
          <mxGeometry x="522.5" y="520" width="120" height="60" as="geometry" />
        </mxCell>
        <mxCell id="d7ewJkxzptBL8_109A1J-5" value="makes" style="shape=rhombus;perimeter=rhombusPerimeter;whiteSpace=wrap;html=1;align=center;" vertex="1" parent="1">
          <mxGeometry x="340" y="830" width="120" height="60" as="geometry" />
        </mxCell>
        <mxCell id="d7ewJkxzptBL8_109A1J-6" value="adds" style="shape=rhombus;perimeter=rhombusPerimeter;whiteSpace=wrap;html=1;align=center;rotation=-15;" vertex="1" parent="1">
          <mxGeometry x="602.5" y="160" width="120" height="60" as="geometry" />
        </mxCell>
        <mxCell id="d7ewJkxzptBL8_109A1J-7" value="" style="html=1;rounded=0;entryX=0;entryY=0.5;entryDx=0;entryDy=0;endArrow=none;endFill=0;" edge="1" parent="1" source="0v5BYgATbwjIjrOFxE2R-31" target="d7ewJkxzptBL8_109A1J-6">
          <mxGeometry width="100" relative="1" as="geometry">
            <mxPoint x="825" y="414" as="sourcePoint" />
            <mxPoint x="857" y="665" as="targetPoint" />
          </mxGeometry>
        </mxCell>
        <mxCell id="d7ewJkxzptBL8_109A1J-8" value="1" style="edgeLabel;html=1;align=center;verticalAlign=middle;resizable=0;points=[];fontSize=14;rotation=-30;" connectable="0" vertex="1" parent="d7ewJkxzptBL8_109A1J-7">
          <mxGeometry x="0.0067" y="3" relative="1" as="geometry">
            <mxPoint y="-24" as="offset" />
          </mxGeometry>
        </mxCell>
        <mxCell id="d7ewJkxzptBL8_109A1J-9" value="" style="shape=link;html=1;rounded=0;entryX=1;entryY=0.5;entryDx=0;entryDy=0;" edge="1" parent="1" target="d7ewJkxzptBL8_109A1J-6">
          <mxGeometry width="100" relative="1" as="geometry">
            <mxPoint x="1207.04" y="334.960027603893" as="sourcePoint" />
            <mxPoint x="742.4955495773443" y="153.8808572938488" as="targetPoint" />
          </mxGeometry>
        </mxCell>
        <mxCell id="d7ewJkxzptBL8_109A1J-10" value="N" style="edgeLabel;html=1;align=center;verticalAlign=middle;resizable=0;points=[];fontSize=14;rotation=15;" connectable="0" vertex="1" parent="d7ewJkxzptBL8_109A1J-9">
          <mxGeometry x="0.0067" y="3" relative="1" as="geometry">
            <mxPoint x="49" y="-7" as="offset" />
          </mxGeometry>
        </mxCell>
        <mxCell id="d7ewJkxzptBL8_109A1J-14" style="edgeStyle=orthogonalEdgeStyle;rounded=0;orthogonalLoop=1;jettySize=auto;html=1;exitX=0.5;exitY=1;exitDx=0;exitDy=0;" edge="1" parent="1" source="QvK3bpYZLEqpwQSzRRga-35" target="QvK3bpYZLEqpwQSzRRga-35">
          <mxGeometry relative="1" as="geometry" />
        </mxCell>
        <mxCell id="d7ewJkxzptBL8_109A1J-15" value="updates" style="shape=rhombus;perimeter=rhombusPerimeter;whiteSpace=wrap;html=1;align=center;rotation=-15;" vertex="1" parent="1">
          <mxGeometry x="472.5" y="425" width="120" height="60" as="geometry" />
        </mxCell>
        <mxCell id="d7ewJkxzptBL8_109A1J-16" value="" style="html=1;rounded=0;entryX=0;entryY=0.5;entryDx=0;entryDy=0;endArrow=none;endFill=0;" edge="1" parent="1" source="0v5BYgATbwjIjrOFxE2R-31" target="d7ewJkxzptBL8_109A1J-15">
          <mxGeometry width="100" relative="1" as="geometry">
            <mxPoint x="300" y="540" as="sourcePoint" />
            <mxPoint x="615" y="216" as="targetPoint" />
          </mxGeometry>
        </mxCell>
        <mxCell id="d7ewJkxzptBL8_109A1J-17" value="1" style="edgeLabel;html=1;align=center;verticalAlign=middle;resizable=0;points=[];fontSize=14;rotation=-15;" connectable="0" vertex="1" parent="d7ewJkxzptBL8_109A1J-16">
          <mxGeometry x="0.0067" y="3" relative="1" as="geometry">
            <mxPoint x="15" y="-20" as="offset" />
          </mxGeometry>
        </mxCell>
        <mxCell id="d7ewJkxzptBL8_109A1J-18" value="" style="shape=link;html=1;rounded=0;entryX=1;entryY=0.5;entryDx=0;entryDy=0;" edge="1" parent="1" source="0v5BYgATbwjIjrOFxE2R-88" target="d7ewJkxzptBL8_109A1J-15">
          <mxGeometry width="100" relative="1" as="geometry">
            <mxPoint x="1217.04" y="344.960027603893" as="sourcePoint" />
            <mxPoint x="730" y="184" as="targetPoint" />
          </mxGeometry>
        </mxCell>
        <mxCell id="d7ewJkxzptBL8_109A1J-19" value="N" style="edgeLabel;html=1;align=center;verticalAlign=middle;resizable=0;points=[];fontSize=14;rotation=0;" connectable="0" vertex="1" parent="d7ewJkxzptBL8_109A1J-18">
          <mxGeometry x="0.0067" y="3" relative="1" as="geometry">
            <mxPoint x="21" y="-35" as="offset" />
          </mxGeometry>
        </mxCell>
        <mxCell id="d7ewJkxzptBL8_109A1J-24" value="Hall_Id" style="ellipse;whiteSpace=wrap;html=1;align=center;fontStyle=4;" vertex="1" parent="1">
          <mxGeometry x="800" y="257.5" width="100" height="40" as="geometry" />
        </mxCell>
        <mxCell id="d7ewJkxzptBL8_109A1J-25" style="rounded=0;orthogonalLoop=1;jettySize=auto;html=1;elbow=vertical;endArrow=none;endFill=0;" edge="1" parent="1" source="d7ewJkxzptBL8_109A1J-24" target="0v5BYgATbwjIjrOFxE2R-88">
          <mxGeometry relative="1" as="geometry">
            <mxPoint x="758" y="290" as="sourcePoint" />
            <mxPoint x="772" y="325" as="targetPoint" />
          </mxGeometry>
        </mxCell>
        <mxCell id="AqsdqbYmz81iWgaVVn4U-1" value="no_of_seat" style="ellipse;whiteSpace=wrap;html=1;align=center;dashed=1;" vertex="1" parent="1">
          <mxGeometry x="592.5" y="297.5" width="100" height="40" as="geometry" />
        </mxCell>
        <mxCell id="AqsdqbYmz81iWgaVVn4U-2" value="hall_seat_no" style="ellipse;shape=doubleEllipse;margin=3;whiteSpace=wrap;html=1;align=center;" vertex="1" parent="1">
          <mxGeometry x="850" y="314.99999999999994" width="100" height="40" as="geometry" />
        </mxCell>
        <mxCell id="AqsdqbYmz81iWgaVVn4U-3" style="rounded=0;orthogonalLoop=1;jettySize=auto;html=1;elbow=vertical;endArrow=none;endFill=0;" edge="1" parent="1" source="AqsdqbYmz81iWgaVVn4U-2" target="0v5BYgATbwjIjrOFxE2R-88">
          <mxGeometry relative="1" as="geometry">
            <mxPoint x="835" y="305" as="sourcePoint" />
            <mxPoint x="808" y="325" as="targetPoint" />
          </mxGeometry>
        </mxCell>
        <mxCell id="MovmYVvuKjJ98799O4cg-1" value="customer_type" style="ellipse;whiteSpace=wrap;html=1;align=center;" vertex="1" parent="1">
          <mxGeometry x="30" y="610" width="100" height="40" as="geometry" />
        </mxCell>
        <mxCell id="MovmYVvuKjJ98799O4cg-2" style="rounded=0;orthogonalLoop=1;jettySize=auto;html=1;elbow=vertical;endArrow=none;endFill=0;" edge="1" parent="1" source="MovmYVvuKjJ98799O4cg-1" target="0v5BYgATbwjIjrOFxE2R-32">
          <mxGeometry relative="1" as="geometry">
            <mxPoint x="168" y="540" as="sourcePoint" />
            <mxPoint x="213" y="422" as="targetPoint" />
          </mxGeometry>
        </mxCell>
      </root>
    </mxGraphModel>
  </diagram>
</mxfile>
